<?xml version="1.0" encoding="utf-8"?>
<!-- Generator: Adobe Illustrator 22.0.1, SVG Export Plug-In . SVG Version: 6.00 Build 0)  -->
<svg version="1.1" id="Capa_1" xmlns="http://www.w3.org/2000/svg" xmlns:xlink="http://www.w3.org/1999/xlink" x="0px" y="0px"
	 viewBox="0 0 137.2 30.4" style="enable-background:new 0 0 137.2 30.4;" xml:space="preserve">
<style type="text/css">
	.st0{fill:#3983C2;}
</style>
<g>
	<path class="st0" d="M43.1,14.8v4.9c0,1,0.3,1.8,1.1,1.8h0.3v0.9c-0.1,0-0.2,0-0.3,0c-1,0-1.7-0.6-1.9-1.3h-0.1
		c-0.5,0.6-1.4,1.4-3.2,1.4c-1.9,0-3-1.4-3-2.7c0-2.3,2.3-3.4,6.1-3.4v-1.2c0-1.9-0.9-2.4-2.4-2.4c-1.5,0-2.2,0.8-2.5,1.3l-0.8-0.7
		c0.3-0.5,1.3-1.6,3.4-1.6C41.9,11.7,43.1,12.7,43.1,14.8z M42.1,17.3c-2.7-0.1-4.9,0.6-4.9,2.3c0,1,0.7,1.9,2.1,1.9
		c1.3,0,2.4-0.8,2.9-1.6V17.3z"/>
	<path class="st0" d="M48.9,19.7v-6.8h-1.6v-0.7l1.6-0.2l0.3-2.8H50v2.8h2.9v1H50v6.7c0,1.3,0.6,1.8,1.6,1.8c1,0,1.4-0.2,1.6-0.3
		l0.3,0.9c-0.4,0.2-1.1,0.4-2.2,0.4C49.7,22.4,48.9,21.5,48.9,19.7z"/>
	<path class="st0" d="M67,11.8c2,0,3.2,1.2,3.2,3.4v7.2h-1.1v-6.9c0-1.7-0.8-2.6-2.2-2.6c-1.4,0-2.3,1-2.6,1.9v7.7h-1.1v-6.8
		c0-1.8-0.8-2.7-2.2-2.7c-1.5,0-2.4,1.1-2.6,2v7.5h-1.1V12H58l0.3,1.2h0.1c0.2-0.3,0.9-1.4,2.7-1.4c1.5,0,2.4,0.7,2.8,1.7h0.1
		C64.3,12.7,65.3,11.8,67,11.8z"/>
	<path class="st0" d="M86.6,14.5c0-1.4,1.2-2.8,3.5-2.8c1.1,0,2.2,0.4,2.8,1l-0.7,0.8c-0.5-0.5-1.4-0.8-2.1-0.8
		c-1.6,0-2.3,0.8-2.3,1.7c0,2.6,5.3,1.5,5.3,5.1c0,1.4-1.2,2.9-3.6,2.9c-1.6,0-2.8-0.6-3.5-1.3l0.7-0.9c0.7,0.7,1.7,1.1,2.9,1.1
		c1.6,0,2.4-0.8,2.4-1.9C92,16.9,86.6,18,86.6,14.5z"/>
	<path class="st0" d="M102.2,8.9c-0.4-0.1-0.8-0.2-1.5-0.2c-1,0-1.5,0.5-1.5,1.5V12h2.8v1h-2.8v9.4h-1.1V13h-1.8v-1h1.8v-1.8
		c0-1.6,0.9-2.5,2.8-2.5c0.7,0,1.2,0.1,1.6,0.2L102.2,8.9z"/>
	<path class="st0" d="M120.5,13.1c-0.4-0.1-0.8-0.2-1.2-0.2c-1.1,0-2.1,0.4-2.6,1.5v7.9h-1.1V11.9h0.8l0.3,1.1h0.1
		c0.5-0.7,1.4-1.2,2.6-1.2c0.5,0,0.9,0.1,1.1,0.1V13.1z"/>
	<path class="st0" d="M129.9,14.8v4.9c0,1,0.3,1.8,1.1,1.8h0.3v0.9c-0.1,0-0.2,0-0.3,0c-1,0-1.7-0.6-1.9-1.3H129
		c-0.5,0.6-1.4,1.4-3.2,1.4c-1.9,0-3-1.4-3-2.7c0-2.3,2.3-3.4,6.1-3.4v-1.2c0-1.9-0.9-2.4-2.4-2.4c-1.5,0-2.2,0.8-2.5,1.3l-0.8-0.7
		c0.3-0.5,1.3-1.6,3.4-1.6C128.6,11.7,129.9,12.7,129.9,14.8z M128.9,17.3c-2.7-0.1-4.9,0.6-4.9,2.3c0,1,0.7,1.9,2.1,1.9
		c1.3,0,2.4-0.8,2.9-1.6V17.3z"/>
	<path class="st0" d="M105,19.2l0-4.7c0-1.3,0.5-1.8,0.8-2c0.7-0.6,2-1,3.3-1c1.9,0,3,1.4,3,2.7c0,2.3-2.3,3.4-6.1,3.4v1.2
		c0,1.9,0.9,2.4,2.4,2.4c1.5,0,2.2-0.8,2.5-1.3l0.8,0.7c-0.3,0.5-1.3,1.6-3.4,1.6C106.2,22.2,105,21.2,105,19.2z M106,16.6
		c2.7,0.1,4.9-0.6,4.9-2.3c0-1-0.7-1.9-2.1-1.9c-1.3,0-2.5,0.7-2.8,1.6C105.9,14.6,106,16.6,106,16.6z"/>
	<path class="st0" d="M78.3,11.9c-2.9,0-5.3,2.4-5.3,5.3c0,2.9,2.4,5.3,5.3,5.3s5.3-2.4,5.3-5.3C83.6,14.2,81.3,11.9,78.3,11.9z
		 M78.3,21.2c-2.3,0-4.1-1.8-4.1-4.1s1.8-4.1,4.1-4.1s4.1,1.8,4.1,4.1S80.6,21.2,78.3,21.2z"/>
	<rect x="75.6" y="9.5" class="st0" width="5.5" height="0.9"/>
	<g>
		<path class="st0" d="M17.7,1.9c-7.3,0-13.1,5.9-13.1,13.3c0,7.3,5.9,13.3,13.1,13.3c7.2,0,13.1-5.9,13.1-13.3
			C30.8,7.9,24.9,1.9,17.7,1.9z M17.7,27.5c-6.8,0-12.3-5.5-12.3-12.4S10.9,2.8,17.7,2.8s12.3,5.5,12.3,12.4S24.4,27.5,17.7,27.5z"
			/>
		<g>
			<polygon class="st0" points="11.1,18.7 10.1,21.5 12.3,21.5 13.4,18.7 			"/>
			<polygon class="st0" points="25.1,21.5 18.8,6.8 16.4,6.8 22.7,21.5 			"/>
		</g>
	</g>
</g>
</svg>
